<svg xmlns="http://www.w3.org/2000/svg" xmlns:xlink="http://www.w3.org/1999/xlink" width="500" zoomAndPan="magnify" viewBox="0 0 375 93.749996" height="125" preserveAspectRatio="xMidYMid meet" version="1.0"><defs><g/><clipPath id="654fe8194b"><path d="M 30 82 L 72 82 L 72 92.753906 L 30 92.753906 Z M 30 82 " clip-rule="nonzero"/></clipPath><clipPath id="011c511d09"><path d="M 0.5 45 L 93.25 45 L 93.25 66 L 0.5 66 Z M 0.5 45 " clip-rule="nonzero"/></clipPath><clipPath id="2e8031a534"><path d="M 0.5 27 L 93 27 L 93 48 L 0.5 48 Z M 0.5 27 " clip-rule="nonzero"/></clipPath></defs><g clip-path="url(#654fe8194b)"><path fill="#21469c" d="M 71.761719 85.570312 C 64.570312 90.148438 56.03125 92.800781 46.878906 92.800781 C 41.011719 92.800781 35.402344 91.714844 30.238281 89.730469 C 30.796875 89.792969 31.375 89.820312 31.96875 89.820312 C 34.515625 89.820312 37.425781 89.261719 41.125 88.054688 C 42.367188 87.660156 43.574219 87.222656 44.597656 86.847656 C 45.40625 86.550781 46.21875 86.246094 47.03125 85.941406 L 47.527344 85.753906 C 52.414062 83.917969 56.464844 82.484375 60.429688 82.109375 C 61.066406 82.046875 61.6875 82.019531 62.277344 82.019531 C 65.324219 82.019531 67.914062 82.800781 70.195312 84.402344 L 70.375 84.519531 C 70.824219 84.90625 71.285156 85.257812 71.761719 85.570312 Z M 71.761719 85.570312 " fill-opacity="1" fill-rule="evenodd"/></g><path fill="#21469c" d="M 88.046875 67.820312 C 85.46875 72.769531 82.023438 77.191406 77.917969 80.894531 C 75.152344 80.71875 72.761719 79.847656 70.660156 78.265625 C 68.316406 76.28125 65.574219 75.3125 62.269531 75.3125 C 61.699219 75.3125 61.105469 75.34375 60.496094 75.402344 C 56.613281 75.773438 52.613281 77.1875 47.785156 79 L 47.230469 79.207031 C 45.867188 79.722656 44.457031 80.25 43.078125 80.730469 C 41.859375 81.164062 40.765625 81.515625 39.742188 81.816406 C 36.6875 82.710938 34.210938 83.132812 31.941406 83.132812 C 28.730469 83.132812 26.007812 82.265625 23.617188 80.484375 L 23.597656 80.46875 C 21.257812 78.480469 18.511719 77.515625 15.210938 77.515625 C 14.636719 77.515625 14.042969 77.542969 13.433594 77.601562 C 13.164062 77.628906 12.890625 77.660156 12.621094 77.695312 C 9.945312 74.769531 7.644531 71.503906 5.785156 67.96875 L 5.785156 67.964844 C 8.3125 67.140625 10.898438 66.460938 13.371094 66.230469 C 14.007812 66.167969 14.632812 66.136719 15.230469 66.136719 C 18.269531 66.136719 20.855469 66.917969 23.132812 68.523438 L 23.316406 68.636719 C 25.722656 70.730469 28.558594 71.742188 31.96875 71.742188 C 33.710938 71.742188 35.613281 71.484375 37.785156 70.945312 C 38.820312 70.691406 39.886719 70.382812 41.042969 70.007812 C 42.976562 69.382812 44.964844 68.636719 46.886719 67.914062 L 47.53125 67.671875 C 51.582031 66.152344 56.171875 64.429688 60.433594 64.027344 C 61.066406 63.96875 61.691406 63.9375 62.292969 63.9375 C 65.335938 63.9375 67.917969 64.71875 70.191406 66.320312 L 70.390625 66.449219 C 72.796875 68.53125 75.625 69.539062 79.03125 69.539062 C 80.773438 69.539062 82.671875 69.28125 84.847656 68.742188 C 85.855469 68.492188 86.933594 68.183594 88.046875 67.820312 Z M 88.046875 67.820312 " fill-opacity="1" fill-rule="evenodd"/><g clip-path="url(#011c511d09)"><path fill="#0094d9" d="M 93.25 47.890625 C 93.117188 52.113281 92.421875 56.191406 91.234375 60.054688 C 90.046875 60.484375 88.863281 60.898438 87.691406 61.261719 C 86.523438 61.628906 85.464844 61.921875 84.460938 62.152344 C 82.445312 62.617188 80.65625 62.84375 79.003906 62.84375 C 75.769531 62.847656 73.03125 61.96875 70.636719 60.164062 L 70.613281 60.148438 C 68.28125 58.183594 65.550781 57.230469 62.269531 57.230469 C 61.699219 57.230469 61.105469 57.257812 60.5 57.320312 C 56.324219 57.714844 51.785156 59.414062 47.785156 60.917969 L 47.175781 61.144531 C 45.023438 61.953125 42.792969 62.789062 40.628906 63.464844 C 39.46875 63.828125 38.410156 64.117188 37.402344 64.351562 C 35.382812 64.820312 33.597656 65.046875 31.941406 65.046875 C 28.710938 65.046875 25.972656 64.171875 23.601562 62.386719 C 21.257812 60.398438 18.511719 59.429688 15.210938 59.429688 C 14.636719 59.429688 14.042969 59.460938 13.433594 59.515625 C 10.113281 59.832031 6.5625 60.972656 3.234375 62.1875 C 2.023438 58.84375 1.191406 55.324219 0.777344 51.675781 C 1.226562 51.503906 1.675781 51.339844 2.121094 51.171875 C 6.410156 49.589844 9.960938 48.46875 13.367188 48.144531 C 13.882812 48.09375 14.410156 48.066406 14.933594 48.058594 L 15.21875 48.054688 C 18.265625 48.054688 20.855469 48.832031 23.132812 50.4375 L 23.308594 50.550781 C 23.480469 50.699219 23.664062 50.847656 23.867188 51.007812 L 23.933594 51.0625 C 24.046875 51.148438 24.160156 51.230469 24.269531 51.308594 L 24.394531 51.398438 C 24.5 51.472656 24.609375 51.546875 24.714844 51.617188 L 24.855469 51.703125 C 24.960938 51.773438 25.070312 51.839844 25.175781 51.902344 L 25.308594 51.980469 C 25.421875 52.042969 25.53125 52.109375 25.667969 52.183594 C 25.925781 52.316406 26.183594 52.441406 26.445312 52.5625 L 26.550781 52.609375 C 26.636719 52.644531 26.722656 52.679688 26.8125 52.710938 L 27.042969 52.804688 C 27.140625 52.84375 27.238281 52.878906 27.335938 52.910156 L 27.535156 52.984375 C 27.632812 53.015625 27.730469 53.046875 27.828125 53.074219 L 27.96875 53.117188 C 27.96875 53.117188 28.230469 53.191406 28.324219 53.21875 C 28.324219 53.21875 28.757812 53.320312 28.832031 53.335938 L 29.019531 53.375 C 29.214844 53.414062 29.410156 53.449219 29.609375 53.480469 L 29.808594 53.511719 C 29.882812 53.523438 30.332031 53.578125 30.332031 53.578125 L 30.621094 53.601562 L 30.855469 53.621094 L 31.148438 53.636719 C 31.148438 53.636719 31.574219 53.652344 31.671875 53.652344 L 32.105469 53.65625 L 32.453125 53.652344 C 32.625 53.644531 32.804688 53.640625 32.980469 53.628906 L 33.242188 53.613281 L 33.789062 53.566406 L 34.347656 53.503906 L 34.605469 53.472656 L 35.152344 53.394531 L 35.699219 53.304688 C 36.082031 53.238281 36.46875 53.160156 36.839844 53.082031 L 36.886719 53.070312 C 37.078125 53.027344 37.265625 52.984375 37.476562 52.933594 C 37.753906 52.867188 38.035156 52.800781 38.316406 52.726562 L 38.769531 52.601562 C 39.769531 52.328125 40.832031 52.003906 41.921875 51.632812 C 42.09375 51.574219 42.980469 51.265625 42.980469 51.265625 C 44.300781 50.800781 45.648438 50.292969 46.949219 49.808594 L 47.570312 49.574219 C 48.109375 49.371094 48.644531 49.171875 49.179688 48.972656 C 53.46875 47.386719 57.023438 46.265625 60.429688 45.941406 C 60.941406 45.894531 61.46875 45.867188 61.992188 45.859375 L 62.277344 45.855469 C 65.328125 45.855469 67.914062 46.636719 70.191406 48.238281 L 70.378906 48.359375 C 70.546875 48.503906 70.726562 48.648438 70.917969 48.800781 L 70.996094 48.859375 C 71.105469 48.945312 71.21875 49.027344 71.332031 49.109375 L 71.453125 49.195312 C 71.5625 49.269531 71.667969 49.339844 71.777344 49.414062 L 71.914062 49.503906 C 72.019531 49.570312 72.128906 49.636719 72.234375 49.699219 L 72.367188 49.777344 C 72.480469 49.839844 72.589844 49.90625 72.726562 49.976562 C 72.984375 50.117188 73.242188 50.238281 73.507812 50.355469 L 73.609375 50.402344 C 73.710938 50.449219 73.8125 50.488281 73.917969 50.527344 L 74.101562 50.601562 C 74.199219 50.640625 74.296875 50.675781 74.394531 50.710938 L 74.597656 50.78125 C 74.695312 50.808594 74.792969 50.84375 74.886719 50.871094 L 75.097656 50.933594 C 75.191406 50.960938 75.289062 50.988281 75.382812 51.011719 L 75.597656 51.066406 C 75.597656 51.066406 75.8125 51.117188 75.886719 51.132812 L 76.082031 51.171875 C 76.273438 51.210938 76.46875 51.246094 76.667969 51.277344 L 76.871094 51.308594 L 77.390625 51.371094 C 77.488281 51.386719 77.585938 51.390625 77.683594 51.398438 L 77.914062 51.417969 C 78.007812 51.421875 78.109375 51.429688 78.203125 51.4375 L 78.441406 51.445312 L 78.730469 51.453125 L 79.148438 51.457031 L 79.507812 51.449219 C 79.6875 51.445312 79.859375 51.4375 80.039062 51.425781 L 80.296875 51.410156 L 80.847656 51.363281 L 81.40625 51.304688 L 81.660156 51.273438 L 82.210938 51.195312 C 82.335938 51.175781 82.753906 51.105469 82.753906 51.105469 C 83.140625 51.039062 83.527344 50.960938 83.914062 50.875 L 83.941406 50.867188 C 84.136719 50.828125 84.328125 50.78125 84.503906 50.742188 L 84.535156 50.734375 C 84.8125 50.667969 85.09375 50.597656 85.371094 50.523438 L 85.824219 50.402344 C 86.824219 50.128906 87.886719 49.800781 88.976562 49.429688 C 89.148438 49.375 90.039062 49.066406 90.039062 49.066406 C 91.105469 48.6875 92.191406 48.285156 93.25 47.890625 Z M 93.25 47.890625 " fill-opacity="1" fill-rule="evenodd"/></g><path fill="#8dd7f7" d="M 63.386719 3.027344 C 63.023438 3 62.648438 2.992188 62.273438 2.992188 C 61.703125 2.992188 61.105469 3.019531 60.496094 3.078125 C 58.667969 3.25 56.625 3.683594 54.25 4.410156 C 52.148438 5.046875 49.992188 5.847656 47.78125 6.675781 L 46.917969 7.003906 C 45.800781 7.417969 44.6875 7.835938 43.582031 8.230469 C 43.308594 8.324219 43.03125 8.425781 42.757812 8.519531 C 41.351562 9.007812 40.105469 9.402344 38.949219 9.71875 C 36.289062 10.453125 33.996094 10.804688 31.945312 10.804688 C 28.730469 10.804688 26.003906 9.941406 23.617188 8.15625 L 23.601562 8.140625 C 23.152344 7.757812 22.683594 7.414062 22.203125 7.105469 C 29.347656 2.605469 37.808594 0.00390625 46.878906 0.00390625 C 52.691406 0.0078125 58.253906 1.078125 63.386719 3.027344 Z M 63.386719 3.027344 " fill-opacity="1" fill-rule="evenodd"/><path fill="#8dd7f7" d="M 88.046875 24.988281 C 87.925781 25.023438 87.8125 25.0625 87.691406 25.101562 C 86.523438 25.464844 85.46875 25.757812 84.464844 25.988281 C 82.445312 26.457031 80.660156 26.683594 79.003906 26.683594 C 75.769531 26.683594 73.035156 25.804688 70.636719 24 L 70.617188 23.984375 C 68.28125 22.023438 65.550781 21.070312 62.273438 21.070312 C 61.703125 21.070312 61.105469 21.097656 60.5 21.15625 C 56.332031 21.550781 51.789062 23.253906 47.789062 24.753906 L 47.179688 24.980469 C 45.027344 25.789062 42.792969 26.625 40.632812 27.300781 C 39.464844 27.664062 38.40625 27.957031 37.402344 28.191406 C 35.382812 28.660156 33.601562 28.886719 31.945312 28.886719 C 28.710938 28.886719 25.972656 28.007812 23.601562 26.222656 C 21.257812 24.234375 18.511719 23.265625 15.210938 23.265625 C 14.640625 23.265625 14.046875 23.296875 13.4375 23.355469 C 10.890625 23.59375 8.214844 24.324219 5.605469 25.195312 C 8.195312 20.15625 11.683594 15.65625 15.859375 11.902344 C 18.632812 12.003906 21.019531 12.785156 23.132812 14.273438 L 23.320312 14.394531 C 25.726562 16.480469 28.558594 17.5 31.972656 17.5 C 33.84375 17.5 35.921875 17.191406 38.320312 16.566406 C 39.433594 16.277344 40.609375 15.917969 41.925781 15.46875 C 43.523438 14.933594 45.160156 14.320312 46.742188 13.726562 L 47.53125 13.429688 C 52.417969 11.59375 56.46875 10.160156 60.433594 9.785156 C 61.066406 9.722656 61.6875 9.691406 62.285156 9.691406 C 65.328125 9.691406 67.917969 10.46875 70.191406 12.074219 L 70.386719 12.199219 C 72.792969 14.28125 75.621094 15.292969 79.03125 15.292969 C 79.722656 15.292969 80.4375 15.25 81.1875 15.167969 C 83.875 18.121094 86.1875 21.417969 88.046875 24.988281 Z M 88.046875 24.988281 " fill-opacity="1" fill-rule="evenodd"/><g clip-path="url(#2e8031a534)"><path fill="#0094d9" d="M 92.996094 41.328125 C 92.8125 41.398438 92.621094 41.46875 92.4375 41.539062 L 91.703125 41.804688 C 91.226562 41.980469 90.746094 42.152344 90.269531 42.320312 L 90.003906 42.414062 C 89.546875 42.574219 89.089844 42.730469 88.628906 42.882812 L 88.308594 42.984375 C 87.804688 43.148438 87.300781 43.308594 86.796875 43.453125 L 86.199219 43.628906 C 85.472656 43.828125 84.761719 44.007812 84.101562 44.152344 C 84.101562 44.152344 83.730469 44.234375 83.574219 44.265625 C 83.574219 44.265625 83.203125 44.339844 83.058594 44.367188 C 83.058594 44.367188 82.679688 44.433594 82.53125 44.457031 L 81.949219 44.542969 C 81.949219 44.542969 81.59375 44.597656 81.433594 44.613281 L 81.472656 45.695312 L 81.390625 44.621094 C 81.21875 44.640625 81.042969 44.660156 80.867188 44.675781 C 80.867188 44.675781 80.503906 44.707031 80.359375 44.71875 L 79.851562 44.746094 L 79.347656 44.761719 L 78.894531 44.765625 L 78.347656 44.753906 L 77.851562 44.726562 L 77.359375 44.683594 L 77.144531 44.660156 L 76.871094 44.628906 L 76.605469 44.589844 L 76.386719 44.554688 L 76.121094 44.507812 L 75.90625 44.464844 C 75.816406 44.445312 75.425781 44.355469 75.425781 44.355469 L 75.164062 44.292969 C 75.164062 44.292969 74.78125 44.183594 74.691406 44.15625 L 74.476562 44.089844 L 74.222656 44.007812 C 74.222656 44.007812 73.84375 43.871094 73.757812 43.832031 C 73.757812 43.832031 73.382812 43.679688 73.300781 43.644531 L 72.84375 43.4375 C 72.773438 43.402344 72.390625 43.207031 72.390625 43.207031 L 71.949219 42.957031 L 71.5 42.6875 C 71.433594 42.644531 71.066406 42.402344 71.066406 42.402344 C 70.921875 42.300781 70.777344 42.195312 70.660156 42.105469 C 68.316406 40.117188 65.578125 39.148438 62.273438 39.148438 C 61.703125 39.148438 61.105469 39.179688 60.496094 39.238281 C 58.667969 39.410156 56.625 39.84375 54.242188 40.570312 L 54 40.648438 C 53.613281 40.765625 53.222656 40.890625 52.832031 41.023438 L 52.398438 41.167969 C 52.03125 41.289062 51.664062 41.417969 51.296875 41.550781 L 50.550781 41.8125 L 49.964844 42.023438 C 49.238281 42.292969 48.515625 42.558594 47.78125 42.832031 L 47.289062 43.019531 C 46.648438 43.261719 46.011719 43.5 45.371094 43.738281 L 44.636719 44.003906 C 44.160156 44.179688 43.683594 44.351562 43.210938 44.519531 L 42.945312 44.609375 C 42.484375 44.773438 42.027344 44.929688 41.570312 45.082031 L 41.25 45.1875 C 40.746094 45.347656 40.242188 45.507812 39.738281 45.652344 C 39.738281 45.652344 39.292969 45.785156 39.140625 45.824219 C 38.410156 46.03125 37.699219 46.207031 37.03125 46.355469 L 37.101562 47.433594 L 37 46.363281 C 36.839844 46.398438 36.675781 46.433594 36.515625 46.464844 C 36.515625 46.464844 36.148438 46.539062 35.996094 46.566406 C 35.996094 46.566406 35.617188 46.632812 35.46875 46.65625 L 34.855469 46.753906 C 34.695312 46.773438 34.535156 46.792969 34.371094 46.816406 L 34.410156 47.898438 L 34.332031 46.816406 C 34.160156 46.839844 33.984375 46.859375 33.808594 46.875 C 33.808594 46.875 33.445312 46.90625 33.300781 46.917969 L 32.789062 46.945312 L 32.289062 46.964844 L 31.859375 46.964844 L 31.285156 46.957031 L 30.792969 46.929688 C 30.703125 46.925781 30.300781 46.886719 30.300781 46.886719 C 30.207031 46.875 30.117188 46.867188 30.03125 46.859375 L 29.542969 46.789062 L 29.324219 46.757812 C 29.238281 46.742188 29.148438 46.726562 29.058594 46.710938 L 28.84375 46.667969 L 28.578125 46.609375 L 28.363281 46.5625 C 28.277344 46.539062 28.191406 46.515625 28.101562 46.492188 L 27.890625 46.4375 C 27.804688 46.410156 27.714844 46.386719 27.632812 46.363281 L 27.160156 46.207031 C 27.160156 46.207031 26.785156 46.070312 26.699219 46.039062 L 26.238281 45.847656 C 26.171875 45.820312 25.863281 45.675781 25.785156 45.640625 L 25.332031 45.410156 L 24.886719 45.160156 L 24.441406 44.894531 C 24.371094 44.84375 24.296875 44.796875 24.226562 44.75 L 24.003906 44.601562 C 23.875 44.511719 23.742188 44.417969 23.617188 44.324219 L 23.597656 44.304688 C 21.257812 42.320312 18.511719 41.351562 15.210938 41.351562 C 14.640625 41.351562 14.042969 41.382812 13.429688 41.4375 C 11.605469 41.609375 9.5625 42.046875 7.183594 42.769531 L 6.9375 42.847656 C 6.550781 42.96875 6.160156 43.09375 5.769531 43.222656 L 5.332031 43.367188 C 4.96875 43.492188 4.601562 43.617188 4.230469 43.75 L 3.476562 44.019531 L 2.902344 44.226562 C 2.179688 44.492188 1.449219 44.761719 0.71875 45.035156 L 0.5 45.121094 C 0.613281 40.90625 1.289062 36.828125 2.457031 32.96875 C 5.984375 31.671875 9.796875 30.402344 13.367188 30.0625 C 14.007812 30.003906 14.632812 29.972656 15.230469 29.972656 C 18.269531 29.972656 20.855469 30.75 23.132812 32.355469 L 23.316406 32.476562 C 25.722656 34.5625 28.558594 35.578125 31.96875 35.578125 C 33.707031 35.578125 35.613281 35.320312 37.785156 34.78125 C 38.820312 34.523438 39.886719 34.21875 41.042969 33.84375 C 42.96875 33.222656 44.949219 32.480469 46.859375 31.761719 L 47.527344 31.507812 C 51.578125 29.988281 56.171875 28.265625 60.429688 27.863281 C 61.066406 27.800781 61.691406 27.773438 62.289062 27.773438 C 65.332031 27.773438 67.917969 28.550781 70.191406 30.160156 L 70.386719 30.28125 C 72.792969 32.363281 75.621094 33.375 79.03125 33.375 C 80.769531 33.375 82.671875 33.113281 84.847656 32.578125 C 85.875 32.320312 86.945312 32.015625 88.101562 31.636719 C 88.921875 31.375 89.753906 31.089844 90.582031 30.792969 C 91.78125 34.140625 92.601562 37.667969 92.996094 41.328125 Z M 92.996094 41.328125 " fill-opacity="1" fill-rule="evenodd"/></g><g fill="#ffffff" fill-opacity="1"><g transform="translate(111.671221, 60.567135)"><g><path d="M 4.25 -30.28125 C 4.25 -33.144531 5.101562 -35.445312 6.8125 -37.1875 C 8.519531 -38.9375 10.8125 -39.8125 13.6875 -39.8125 L 16.75 -39.8125 L 16.75 -33.546875 L 14.84375 -33.546875 C 12.695312 -33.546875 11.625 -32.421875 11.625 -30.171875 L 11.625 -28.359375 L 17.40625 -28.359375 L 17.40625 -22.09375 L 11.625 -22.09375 L 11.625 0 L 4.25 0 L 4.25 -22.09375 L 0.265625 -22.09375 L 0.265625 -28.359375 L 4.25 -28.359375 Z M 4.25 -30.28125 "/></g></g></g><g fill="#ffffff" fill-opacity="1"><g transform="translate(129.337787, 60.567135)"><g><path d="M 2.1875 -39.8125 L 9.546875 -39.8125 L 9.546875 0 L 2.1875 0 Z M 2.1875 -39.8125 "/></g></g></g><g fill="#ffffff" fill-opacity="1"><g transform="translate(141.06098, 60.567135)"><g><path d="M 16.203125 0.703125 C 13.328125 0.703125 10.742188 0.0390625 8.453125 -1.28125 C 6.160156 -2.601562 4.359375 -4.398438 3.046875 -6.671875 C 1.742188 -8.953125 1.09375 -11.4375 1.09375 -14.125 C 1.09375 -16.820312 1.742188 -19.3125 3.046875 -21.59375 C 4.359375 -23.882812 6.160156 -25.691406 8.453125 -27.015625 C 10.742188 -28.347656 13.328125 -29.015625 16.203125 -29.015625 C 19.078125 -29.015625 21.65625 -28.347656 23.9375 -27.015625 C 26.226562 -25.691406 28.03125 -23.882812 29.34375 -21.59375 C 30.65625 -19.3125 31.3125 -16.820312 31.3125 -14.125 C 31.3125 -11.4375 30.65625 -8.953125 29.34375 -6.671875 C 28.03125 -4.398438 26.226562 -2.601562 23.9375 -1.28125 C 21.65625 0.0390625 19.078125 0.703125 16.203125 0.703125 Z M 8.453125 -14.125 C 8.453125 -12.632812 8.769531 -11.269531 9.40625 -10.03125 C 10.039062 -8.800781 10.945312 -7.820312 12.125 -7.09375 C 13.3125 -6.363281 14.671875 -6 16.203125 -6 C 17.722656 -6 19.070312 -6.363281 20.25 -7.09375 C 21.4375 -7.820312 22.347656 -8.800781 22.984375 -10.03125 C 23.628906 -11.269531 23.953125 -12.632812 23.953125 -14.125 C 23.953125 -15.613281 23.625 -16.976562 22.96875 -18.21875 C 22.3125 -19.457031 21.398438 -20.445312 20.234375 -21.1875 C 19.066406 -21.9375 17.722656 -22.3125 16.203125 -22.3125 C 14.671875 -22.3125 13.320312 -21.9375 12.15625 -21.1875 C 11 -20.445312 10.09375 -19.457031 9.4375 -18.21875 C 8.78125 -16.976562 8.453125 -15.613281 8.453125 -14.125 Z M 8.453125 -14.125 "/></g></g></g><g fill="#ffffff" fill-opacity="1"><g transform="translate(173.449701, 60.567135)"><g><path d="M 16.203125 0.703125 C 13.328125 0.703125 10.742188 0.0390625 8.453125 -1.28125 C 6.160156 -2.601562 4.359375 -4.398438 3.046875 -6.671875 C 1.742188 -8.953125 1.09375 -11.4375 1.09375 -14.125 C 1.09375 -16.820312 1.742188 -19.3125 3.046875 -21.59375 C 4.359375 -23.882812 6.160156 -25.691406 8.453125 -27.015625 C 10.742188 -28.347656 13.328125 -29.015625 16.203125 -29.015625 C 19.078125 -29.015625 21.65625 -28.347656 23.9375 -27.015625 C 26.226562 -25.691406 28.03125 -23.882812 29.34375 -21.59375 C 30.65625 -19.3125 31.3125 -16.820312 31.3125 -14.125 C 31.3125 -11.4375 30.65625 -8.953125 29.34375 -6.671875 C 28.03125 -4.398438 26.226562 -2.601562 23.9375 -1.28125 C 21.65625 0.0390625 19.078125 0.703125 16.203125 0.703125 Z M 8.453125 -14.125 C 8.453125 -12.632812 8.769531 -11.269531 9.40625 -10.03125 C 10.039062 -8.800781 10.945312 -7.820312 12.125 -7.09375 C 13.3125 -6.363281 14.671875 -6 16.203125 -6 C 17.722656 -6 19.070312 -6.363281 20.25 -7.09375 C 21.4375 -7.820312 22.347656 -8.800781 22.984375 -10.03125 C 23.628906 -11.269531 23.953125 -12.632812 23.953125 -14.125 C 23.953125 -15.613281 23.625 -16.976562 22.96875 -18.21875 C 22.3125 -19.457031 21.398438 -20.445312 20.234375 -21.1875 C 19.066406 -21.9375 17.722656 -22.3125 16.203125 -22.3125 C 14.671875 -22.3125 13.320312 -21.9375 12.15625 -21.1875 C 11 -20.445312 10.09375 -19.457031 9.4375 -18.21875 C 8.78125 -16.976562 8.453125 -15.613281 8.453125 -14.125 Z M 8.453125 -14.125 "/></g></g></g><g fill="#ffffff" fill-opacity="1"><g transform="translate(205.838422, 60.567135)"><g><path d="M 15.109375 0.703125 C 12.566406 0.703125 10.222656 0.0390625 8.078125 -1.28125 C 5.929688 -2.601562 4.226562 -4.390625 2.96875 -6.640625 C 1.71875 -8.898438 1.09375 -11.378906 1.09375 -14.078125 C 1.09375 -16.765625 1.71875 -19.242188 2.96875 -21.515625 C 4.226562 -23.785156 5.929688 -25.59375 8.078125 -26.9375 C 10.222656 -28.289062 12.566406 -28.96875 15.109375 -28.96875 C 17.429688 -28.96875 19.300781 -28.539062 20.71875 -27.6875 C 22.144531 -26.832031 23.257812 -25.601562 24.0625 -24 L 24.0625 -39.8125 L 31.421875 -39.8125 L 31.421875 0 L 24.265625 0 L 24.265625 -4.640625 C 23.429688 -2.929688 22.296875 -1.613281 20.859375 -0.6875 C 19.421875 0.238281 17.503906 0.703125 15.109375 0.703125 Z M 8.453125 -14.125 C 8.453125 -12.675781 8.785156 -11.320312 9.453125 -10.0625 C 10.128906 -8.8125 11.054688 -7.8125 12.234375 -7.0625 C 13.421875 -6.320312 14.78125 -5.953125 16.3125 -5.953125 C 17.875 -5.953125 19.265625 -6.3125 20.484375 -7.03125 C 21.703125 -7.757812 22.632812 -8.742188 23.28125 -9.984375 C 23.9375 -11.222656 24.265625 -12.585938 24.265625 -14.078125 C 24.265625 -15.566406 23.9375 -16.9375 23.28125 -18.1875 C 22.632812 -19.445312 21.703125 -20.445312 20.484375 -21.1875 C 19.265625 -21.9375 17.875 -22.3125 16.3125 -22.3125 C 14.78125 -22.3125 13.414062 -21.9375 12.21875 -21.1875 C 11.019531 -20.445312 10.09375 -19.457031 9.4375 -18.21875 C 8.78125 -16.976562 8.453125 -15.613281 8.453125 -14.125 Z M 8.453125 -14.125 "/></g></g></g><g fill="#ffffff" fill-opacity="1"><g transform="translate(239.426723, 60.567135)"><g><path d="M 2.1875 -28.359375 L 9.4375 -28.359375 L 9.4375 -23.78125 C 10.269531 -25.457031 11.394531 -26.738281 12.8125 -27.625 C 14.238281 -28.519531 16.128906 -28.96875 18.484375 -28.96875 C 21.035156 -28.96875 23.382812 -28.289062 25.53125 -26.9375 C 27.675781 -25.59375 29.375 -23.785156 30.625 -21.515625 C 31.882812 -19.242188 32.515625 -16.765625 32.515625 -14.078125 C 32.515625 -11.378906 31.882812 -8.898438 30.625 -6.640625 C 29.375 -4.390625 27.675781 -2.601562 25.53125 -1.28125 C 23.382812 0.0390625 21.035156 0.703125 18.484375 0.703125 C 16.203125 0.703125 14.34375 0.273438 12.90625 -0.578125 C 11.46875 -1.429688 10.347656 -2.640625 9.546875 -4.203125 L 9.546875 10.90625 L 2.1875 10.90625 Z M 9.328125 -14.078125 C 9.328125 -12.585938 9.65625 -11.222656 10.3125 -9.984375 C 10.96875 -8.742188 11.90625 -7.757812 13.125 -7.03125 C 14.34375 -6.3125 15.734375 -5.953125 17.296875 -5.953125 C 18.816406 -5.953125 20.164062 -6.320312 21.34375 -7.0625 C 22.53125 -7.8125 23.457031 -8.8125 24.125 -10.0625 C 24.800781 -11.320312 25.140625 -12.675781 25.140625 -14.125 C 25.140625 -15.613281 24.8125 -16.976562 24.15625 -18.21875 C 23.507812 -19.457031 22.582031 -20.445312 21.375 -21.1875 C 20.175781 -21.9375 18.816406 -22.3125 17.296875 -22.3125 C 15.734375 -22.3125 14.34375 -21.9375 13.125 -21.1875 C 11.90625 -20.445312 10.96875 -19.445312 10.3125 -18.1875 C 9.65625 -16.9375 9.328125 -15.566406 9.328125 -14.078125 Z M 9.328125 -14.078125 "/></g></g></g><g fill="#ffffff" fill-opacity="1"><g transform="translate(273.015025, 60.567135)"><g><path d="M 16.203125 0.703125 C 13.328125 0.703125 10.742188 0.0390625 8.453125 -1.28125 C 6.160156 -2.601562 4.359375 -4.398438 3.046875 -6.671875 C 1.742188 -8.953125 1.09375 -11.4375 1.09375 -14.125 C 1.09375 -16.820312 1.742188 -19.3125 3.046875 -21.59375 C 4.359375 -23.882812 6.160156 -25.691406 8.453125 -27.015625 C 10.742188 -28.347656 13.328125 -29.015625 16.203125 -29.015625 C 19.078125 -29.015625 21.65625 -28.347656 23.9375 -27.015625 C 26.226562 -25.691406 28.03125 -23.882812 29.34375 -21.59375 C 30.65625 -19.3125 31.3125 -16.820312 31.3125 -14.125 C 31.3125 -11.4375 30.65625 -8.953125 29.34375 -6.671875 C 28.03125 -4.398438 26.226562 -2.601562 23.9375 -1.28125 C 21.65625 0.0390625 19.078125 0.703125 16.203125 0.703125 Z M 8.453125 -14.125 C 8.453125 -12.632812 8.769531 -11.269531 9.40625 -10.03125 C 10.039062 -8.800781 10.945312 -7.820312 12.125 -7.09375 C 13.3125 -6.363281 14.671875 -6 16.203125 -6 C 17.722656 -6 19.070312 -6.363281 20.25 -7.09375 C 21.4375 -7.820312 22.347656 -8.800781 22.984375 -10.03125 C 23.628906 -11.269531 23.953125 -12.632812 23.953125 -14.125 C 23.953125 -15.613281 23.625 -16.976562 22.96875 -18.21875 C 22.3125 -19.457031 21.398438 -20.445312 20.234375 -21.1875 C 19.066406 -21.9375 17.722656 -22.3125 16.203125 -22.3125 C 14.671875 -22.3125 13.320312 -21.9375 12.15625 -21.1875 C 11 -20.445312 10.09375 -19.457031 9.4375 -18.21875 C 8.78125 -16.976562 8.453125 -15.613281 8.453125 -14.125 Z M 8.453125 -14.125 "/></g></g></g><g fill="#ffffff" fill-opacity="1"><g transform="translate(305.403746, 60.567135)"><g><path d="M 2.1875 -28.359375 L 9.546875 -28.359375 L 9.546875 0 L 2.1875 0 Z M 1.421875 -35.078125 C 1.421875 -36.273438 1.847656 -37.289062 2.703125 -38.125 C 3.554688 -38.96875 4.601562 -39.390625 5.84375 -39.390625 C 7.113281 -39.390625 8.164062 -38.96875 9 -38.125 C 9.832031 -37.289062 10.25 -36.273438 10.25 -35.078125 C 10.25 -33.835938 9.832031 -32.796875 9 -31.953125 C 8.164062 -31.117188 7.113281 -30.703125 5.84375 -30.703125 C 4.601562 -30.703125 3.554688 -31.128906 2.703125 -31.984375 C 1.847656 -32.847656 1.421875 -33.878906 1.421875 -35.078125 Z M 1.421875 -35.078125 "/></g></g></g><g fill="#ffffff" fill-opacity="1"><g transform="translate(317.126939, 60.567135)"><g><path d="M 2.1875 -28.359375 L 9.4375 -28.359375 L 9.4375 -24.21875 C 10.925781 -27.414062 13.816406 -29.015625 18.109375 -29.015625 C 20.148438 -29.015625 21.988281 -28.53125 23.625 -27.5625 C 25.257812 -26.601562 26.546875 -25.242188 27.484375 -23.484375 C 28.429688 -21.722656 28.90625 -19.675781 28.90625 -17.34375 L 28.90625 0 L 21.546875 0 L 21.546875 -15.546875 C 21.546875 -17.910156 21 -19.671875 19.90625 -20.828125 C 18.8125 -21.992188 17.320312 -22.578125 15.4375 -22.578125 C 13.757812 -22.578125 12.359375 -21.984375 11.234375 -20.796875 C 10.109375 -19.617188 9.546875 -17.867188 9.546875 -15.546875 L 9.546875 0 L 2.1875 0 Z M 2.1875 -28.359375 "/></g></g></g><g fill="#ffffff" fill-opacity="1"><g transform="translate(347.934381, 60.567135)"><g><path d="M 12.921875 0 C 10.054688 0 7.894531 -0.707031 6.4375 -2.125 C 4.976562 -3.539062 4.25 -5.757812 4.25 -8.78125 L 4.25 -22.09375 L 0.265625 -22.09375 L 0.265625 -28.359375 L 4.25 -28.359375 L 4.25 -34.09375 L 11.625 -34.859375 L 11.625 -28.359375 L 17.625 -28.359375 L 17.625 -22.09375 L 11.625 -22.09375 L 11.625 -9.15625 C 11.625 -7.414062 12.382812 -6.546875 13.90625 -6.546875 L 16.96875 -6.546875 L 16.96875 0 Z M 12.921875 0 "/></g></g></g></svg>